<svg height="541.86151" viewBox="0 0 165.54654 143.36753" width="625.68774" xmlns="http://www.w3.org/2000/svg"><g transform="translate(-48.886082 -15.49277)"><path d="m71.683926 54.919768 28.647994-49.6197832 28.648-49.6197858 28.648 49.6197841 28.64799 49.6197879-57.29599-.000002z" fill="#1c1b19" transform="matrix(1.4446608 0 0 1.4446608 -54.672876 79.51985)"/><path d="m94.704041 91.457808-6.042816-16.992628-16.288517 7.742687 7.742686-16.288518-16.992628-6.042815 16.992628-6.042816-7.742687-16.288517 16.288518 7.742686 6.042815-16.992628 6.04282 16.992628 16.28851-7.742687-7.74268 16.288518 16.99262 6.042815-16.99262 6.042816 7.74268 16.288517-16.28851-7.742686z" fill="#baa67f" stroke-linejoin="round" stroke-width=".529167" transform="matrix(.38268343 .92387953 -.92387953 .38268343 150.736392 -16.376593)"/><path d="m131.65835 89.913281a15.393011 12.581964 0 0 0 -12.41509 5.14988 15.393011 12.581964 0 0 0 12.41509 5.150209 15.393011 12.581964 0 0 0 12.4171-5.152879 15.393011 12.581964 0 0 0 -12.4171-5.14721z" fill="#1c1b19"/><circle cx="131.65936" cy="95.063309" fill="#fce8c3" r="4.099718"/><circle cx="131.775193" cy="95.063309" fill="#1c1b19" r="1.824199"/><ellipse cx="130.884813" cy="93.97197" fill="#fce8c3" rx="1.165493" ry="1.091341"/><path d="m118.88477 97.611071s11.67797 10.538269 25.56526-.12876" fill="none" stroke="#1c1b19" stroke-width=".529167"/><path d="m143.94105 64.855143-.66513 1.416611c-.85252 5.515489-2.62586 14.594589-3.89634 21.364172.85634.332025 1.58827.660298 2.16413 1.068256l15.66358-4.901119c-4.71575 3.350649-7.83253 6.641805-11.95069 10.229206.11878 1.001941.14314 1.805387 0 2.565462l13.82245 9.420389 1.95398.0996-13.38677-12.085451 13.38677-12.085683-18.01182.919841z" fill="#fce8c3"/><path d="m102.98457 81.9623-.30624-.01564.2305.208161 17.8035 9.16936 1.19578-.74515z" fill="#1c1b19"/><g fill="#fce8c3" stroke-width=".264584" transform="translate(2.988344 1.744907)"><path d="m106.27527 146.14199q-.44595 0-.8919-.0713-.42811-.0714-.83839-.24974-.41028-.17838-.7492-.46379-.32109-.30325-.55298-.67785-.2319-.39243-.33893-.82055-.10702-.44595-.10702-.8919v-.0714h1.39137v.0535q0 .41027.1427.80271.14271.3746.44595.64217.30325.26758.69569.39244.39244.10703.80271.10703.41028 0 .82056-.12487.41027-.12486.69568-.41027.30325-.30325.44596-.69569.1427-.41027.1427-.83839 0-.44595-.19622-.87407-.17838-.44595-.49947-.76703-.32108-.33893-.71352-.57082-.39244-.24974-.80271-.46379-.39244-.21406-.80272-.44596-.39244-.23189-.7492-.5173-.35676-.28541-.67785-.62434-.30324-.33892-.5173-.7492-.21406-.41027-.33893-.85622-.10702-.44596-.10702-.90975 0-.42811.0892-.85623.10703-.44595.30324-.83839.21406-.39243.51731-.71352.32109-.32109.71352-.51731.39244-.21405.82056-.28541.44595-.0892.8919-.0892.42812 0 .85623.0714.44595.0713.83839.26757.39244.17838.69569.48163.32108.30324.53514.69568.21406.3746.30325.80272.10703.42811.10703.85623v.0713h-1.39138v-.0535q0-.3746-.12486-.7492-.12487-.39243-.39244-.66001-.26757-.28541-.66001-.41027-.3746-.12487-.76704-.12487-.39244 0-.78488.14271-.39243.1427-.66001.44595-.26757.28541-.39243.67785-.12487.39243-.12487.78487 0 .46379.17838.90975.19622.42811.49947.76703.32108.32109.71352.57082.39244.2319.80272.44596.41027.19622.80271.44595.39244.23189.7492.5173.3746.28541.67785.62434.30325.33892.5173.7492.2319.39244.33893.85623.12486.44595.12486.8919 0 .46379-.10702.90974-.10703.42812-.32109.83839-.21406.39244-.55298.71353-.33893.30325-.7492.49947-.39244.19621-.85623.26757-.44595.0892-.89191.0892z"/><path d="m111.89428 145.99928v-13.111h3.42491q.48163 0 .94542.10703.48163.10703.89191.3746.41027.24973.71352.64217.30325.3746.48163.82055.19622.44595.24973.92758.0713.48163.0713.96326 0 .6065-.10702 1.21299-.10703.6065-.41028 1.1238-.30325.51731-.80271.89191-.48163.3746-1.07029.53514l2.67571 5.51197h-1.51623l-.39244-.82055-2.22977-4.60223h-1.53407v5.42278zm3.42491-6.67145q.30325 0 .6065-.0892.30324-.0892.53514-.26757.24973-.19622.41028-.46379.16054-.26757.24973-.55298.0892-.30325.12487-.6065.0357-.30324.0357-.62433 0-.30325-.0357-.60649-.0357-.30325-.12487-.58866-.0892-.30325-.24973-.57082-.16055-.26757-.41028-.44595-.2319-.19622-.53514-.28541-.30325-.0892-.6065-.0892h-2.03354v5.19088z"/><path d="m124.0777 146.14199q-.46379 0-.94542-.0892-.46379-.0892-.87407-.32109-.41027-.23189-.73136-.58866-.32109-.35676-.5173-.78487-.19622-.42812-.26758-.89191-.0713-.48163-.0713-.94542v-6.15414q0-.46379.0713-.92758.0714-.48163.26758-.90975.19621-.42811.5173-.78487.32109-.35676.73136-.58866.41028-.23189.87407-.32109.48163-.0892.94542-.0892.44595 0 .87407.0714.44595.0713.83839.26757.41027.19622.73136.49946.33892.30325.53514.69569.21406.39244.32109.82055.10703.42812.10703.87407v.0535h-1.39138v-.0357q0-.39244-.1427-.78488-.12487-.39244-.41028-.67785-.26757-.28541-.66001-.41027-.39243-.12487-.80271-.12487-.44595 0-.87407.17838-.41027.16055-.67785.51731-.26757.35676-.3746.80271-.0892.42812-.0892.87407v6.15414q0 .44596.0892.89191.10703.42811.3746.78487.26758.35677.67785.53515.42812.16054.87407.16054.41028 0 .80271-.12487.39244-.12486.66001-.41027.28541-.28541.41028-.67785.1427-.39244.1427-.78488v-.0357h1.39138v.0535q0 .44595-.10703.87407-.10703.42811-.32109.82055-.19622.39244-.53514.69569-.32109.30324-.73136.49946-.39244.19622-.83839.26758-.42812.0713-.87407.0713z"/><path d="m129.87508 145.99928v-13.111h6.49307v1.24867h-5.1017v4.42384h4.10277v1.24867h-4.10277v4.94116h5.1017v1.24866z"/><path d="m138.65143 145.99928v-13.111h3.42491q.48163 0 .94542.10703.48163.10703.89191.3746.41027.24973.71352.64217.30325.3746.48163.82055.19622.44595.24973.92758.0714.48163.0714.96326 0 .6065-.10703 1.21299-.10703.6065-.41028 1.1238-.30325.51731-.80271.89191-.48163.3746-1.07029.53514l2.67571 5.51197h-1.51623l-.39244-.82055-2.22976-4.60223h-1.53408v5.42278zm3.42491-6.67145q.30325 0 .6065-.0892.30325-.0892.53514-.26757.24973-.19622.41028-.46379.16054-.26757.24973-.55298.0892-.30325.12487-.6065.0357-.30324.0357-.62433 0-.30325-.0357-.60649-.0357-.30325-.12487-.58866-.0892-.30325-.24973-.57082-.16055-.26757-.41028-.44595-.23189-.19622-.53514-.28541-.30325-.0892-.6065-.0892h-2.03354v5.19088z"/><path d="m150.19268 145.99928v-5.20872l-2.96112-7.90228h1.48056l2.17625 5.94009 2.17624-5.94009h1.48057l-2.96113 7.90228v5.20872z"/></g><g fill="#baa67f"><circle cx="166.532574" cy="141.188697" fill="#808080" r="1.584731"/><circle cx="171.708484" cy="141.188697" fill="#626262" r="1.584731"/><circle cx="176.884404" cy="141.188697" fill="#303030" r="1.584731"/></g><g fill="#baa67f"><circle cx="86.434313" cy="141.530353" fill="#303030" r="1.584731"/><circle cx="91.610223" cy="141.530353" fill="#626262" r="1.584731"/><circle cx="96.786143" cy="141.530353" fill="#808080" r="1.584731"/></g><g transform="translate(-.196268)"><path d="m119.07702 92.543101s11.67797-10.538279 25.56526.12876" fill="none" stroke="#1c1b19" stroke-width=".529167"/><g fill="#1c1b19"><path d="m143.73577 65.082601.20549-.227606-.0158.310184-8.12946 23.180121-.97809-.201639z"/><path d="m160.72668 81.9623.30624-.01564-.2305.208161-17.8035 9.16936-1.19578-.74515z"/><path d="m119.97549 65.082603-.20549-.227606.0158.310184 8.12946 23.180121.97809-.201639z"/><path d="m102.98457 81.9623-.30624-.01564.2305.208161 17.8035 9.16936 1.19578-.74515z"/></g></g><path d="m155.60244 94.032288c0 6.611702-2.67992 12.597472-7.01277 16.930322-4.33285 4.33284-10.31862 7.01276-16.93032 7.01276s-12.59747-2.67992-16.93032-7.01277c-4.33284-4.33285-7.01276-10.31862-7.01276-16.930312 0-6.611699 2.67992-12.59747 7.01277-16.930315 4.33284-4.332846 10.31861-7.012767 16.93031-7.012768s12.59747 2.679919 16.93032 7.012765 7.01277 10.318617 7.01277 16.930318z" fill="none" stroke-miterlimit="0" stroke-width="1.00012"/><g stroke-linejoin="round" stroke-width=".037962"><g transform="matrix(0 2.0223815 -2.0223815 0 390.29926 -22.243502)"><path d="m57.494489 119.15378-2.225367-3.10406 2.225366-3.10405" fill="#e02c6d"/><path d="m57.494488 112.94567 2.225367 3.10406-2.225366 3.10405" fill="#ff5c8f"/></g><g transform="matrix(1.4300403 1.430039 -1.430039 1.4300403 232.32587 -171.07318)"><path d="m57.494489 119.15378-2.225367-3.10406 2.225366-3.10405" fill="#68a8e4"/><path d="m57.494488 112.94567 2.225367 3.10406-2.225366 3.10405" fill="#2c78bf"/></g><g transform="matrix(2.0223815 0 0 2.0223815 15.38356 -164.60761)"><path d="m57.494489 119.15378-2.225367-3.10406 2.225366-3.10405" fill="#e02c6d"/><path d="m57.494488 112.94567 2.225367 3.10406-2.225366 3.10405" fill="#ff5c8f"/></g><g transform="matrix(1.4300396 -1.4300398 1.4300398 1.4300396 -133.44608 -6.634324)"><path d="m57.494489 119.15378-2.225367-3.10406 2.225366-3.10405" fill="#0aaeb3"/><path d="m57.494488 112.94567 2.225367 3.10406-2.225366 3.10405" fill="#2be4d0"/></g><g transform="matrix(0 -2.0223815 2.0223815 0 -126.98055 210.30808)"><path d="m57.494489 119.15378-2.225367-3.10406 2.225366-3.10405" fill="#baa67f"/><path d="m57.494488 112.94567 2.225367 3.10406-2.225366 3.10405" fill="#fce8c3"/></g><g transform="matrix(-1.4300388 -1.4300405 1.4300405 -1.4300388 30.992576 359.13766)"><path d="m57.494489 119.15378-2.225367-3.10406 2.225366-3.10405" fill="#ff8700"/><path d="m57.494488 112.94567 2.225367 3.10406-2.225366 3.10405" fill="#ff5f00"/></g><g transform="matrix(-2.0223815 0 0 -2.0223815 247.93514 352.67219)"><path d="m57.494489 119.15378-2.225367-3.10406 2.225366-3.10405" fill="#f75341"/><path d="m57.494488 112.94567 2.225367 3.10406-2.225366 3.10405" fill="#ef2f27"/></g><g transform="matrix(-1.4300405 1.4300388 -1.4300388 -1.4300405 396.76473 194.69906)"><path d="m57.494489 119.15378-2.225367-3.10406 2.225366-3.10405" fill="#98bc37"/><path d="m57.494488 112.94567 2.225367 3.10406-2.225366 3.10405" fill="#519f50"/></g><g transform="matrix(0 2.0223815 -2.0223815 0 390.29926 -22.243502)"><path d="m57.494489 119.15378-2.225367-3.10406 2.225366-3.10405" fill="#fed06e"/><path d="m57.494488 112.94567 2.225367 3.10406-2.225366 3.10405" fill="#fbb829"/></g></g></g></svg>