<svg height="546.36127" viewBox="0 0 166.73708 144.55809" width="630.18744" xmlns="http://www.w3.org/2000/svg"><g transform="translate(-48.290813 -14.897518)"><path d="m71.683926 54.919768 28.647994-49.6197832 28.648-49.6197858 28.648 49.6197841 28.64799 49.6197879-57.29599-.000002z" fill="#1c1b19" stroke="#918175" stroke-linejoin="round" stroke-miterlimit="0" stroke-width=".824155" transform="matrix(1.4446608 0 0 1.4446608 -54.672876 79.51985)"/><path d="m94.704041 91.457808-6.042816-16.992628-16.288517 7.742687 7.742686-16.288518-16.992628-6.042815 16.992628-6.042816-7.742687-16.288517 16.288518 7.742686 6.042815-16.992628 6.04282 16.992628 16.28851-7.742687-7.74268 16.288518 16.99262 6.042815-16.99262 6.042816 7.74268 16.288517-16.28851-7.742686z" fill="#baa67f" stroke-linejoin="round" stroke-width=".529167" transform="matrix(.38268343 .92387953 -.92387953 .38268343 150.736392 -16.376593)"/><path d="m131.65835 89.913281a15.393011 12.581964 0 0 0 -12.41509 5.14988 15.393011 12.581964 0 0 0 12.41509 5.150209 15.393011 12.581964 0 0 0 12.4171-5.152879 15.393011 12.581964 0 0 0 -12.4171-5.14721z" fill="#1c1b19"/><circle cx="131.65936" cy="95.063309" fill="#fce8c3" r="4.099718"/><circle cx="131.775193" cy="95.063309" fill="#1c1b19" r="1.824199"/><ellipse cx="130.884813" cy="93.97197" fill="#fce8c3" rx="1.165493" ry="1.091341"/><path d="m118.88477 97.611071s11.67797 10.538269 25.56526-.12876" fill="none" stroke="#1c1b19" stroke-width=".529167"/><path d="m143.74477 64.855276-.66513 1.416611c-.85252 5.515489-2.62586 14.594589-3.89634 21.364172.85634.332025 1.58827.660298 2.16413 1.068256l15.66358-4.901119c-4.71575 3.350649-7.83253 6.641805-11.95069 10.229206.11878 1.001941.14314 1.805387 0 2.565462l13.82245 9.420386 1.95398.0996-13.38677-12.085448 13.38677-12.085683-18.01182.919841z" fill="#fce8c3"/><path d="m102.98457 81.9623-.30624-.01564.2305.208161 17.8035 9.16936 1.19578-.74515z" fill="#1c1b19"/><g fill="#baa67f"><circle cx="178.858745" cy="139.987985" fill="#808080" r="1.584731"/><circle cx="184.034655" cy="139.987985" fill="#626262" r="1.584731"/><circle cx="189.210575" cy="139.987985" fill="#303030" r="1.584731"/></g><g fill="#baa67f"><circle cx="74.108134" cy="139.987985" fill="#303030" r="1.584731"/><circle cx="79.284044" cy="139.987985" fill="#626262" r="1.584731"/><circle cx="84.459964" cy="139.987985" fill="#808080" r="1.584731"/></g><g fill="#fce8c3" stroke-width=".264583" transform="translate(2.988344 1.744907)"><path d="m93.824841 144.79855q-.43645 0-.872901-.0698-.418992-.0698-.820526-.24441-.401534-.17458-.733236-.45391-.314244-.29678-.541198-.6634-.226954-.38408-.331702-.80307-.104748-.43645-.104748-.8729v-.0698h1.361724v.0524q0 .40154.139664.78561.139664.36662.43645.62849.296786.26187.680862.38408.384077.10474.785611.10474.401534 0 .803068-.1222.401534-.12221.680862-.40154.296786-.29678.43645-.68086.139664-.40153.139664-.82052 0-.43645-.192038-.85545-.17458-.43645-.488824-.75069-.314244-.3317-.69832-.55866-.384076-.24441-.78561-.4539-.384076-.2095-.785611-.43645-.384076-.22696-.733236-.50629-.34916-.27932-.663404-.61103-.296786-.3317-.506282-.73323-.209496-.40154-.331702-.83799-.104748-.43645-.104748-.89035 0-.419.08729-.83799.104748-.43645.296786-.82052.209496-.38408.506282-.69832.314244-.31425.69832-.50629.384076-.20949.803068-.27932.436451-.0873.872901-.0873.418992 0 .837984.0698.43645.0698.820526.26187.384076.17458.680862.47136.314244.29679.52374.68087.209496.36661.296786.78561.104748.41899.104748.83798v.0698h-1.361724v-.0524q0-.36662-.122206-.73324-.122206-.38407-.384076-.64594-.26187-.27933-.645946-.40154-.366618-.1222-.750694-.1222-.384076 0-.768153.13966-.384076.13966-.645946.43645-.26187.27933-.384076.6634-.122206.38408-.122206.76816 0 .4539.17458.89035.192038.419.488824.7507.314244.31424.698321.55865.384076.22696.78561.43645.401534.19204.78561.43645.384076.22696.733236.50629.366618.27932.663404.61103.296786.3317.506282.73323.226954.38408.331702.83799.122206.43645.122206.8729 0 .4539-.104748.89035-.104748.419-.314244.82053-.209496.38408-.541198.69832-.331702.29679-.733236.48882-.384076.19204-.837984.26187-.43645.0873-.8729.0873z"/><path d="m99.324111 144.65889v-12.83163h3.351939q.47136 0 .92527.10475.47137.10475.8729.36662.40153.24441.69832.62848.29679.36662.47137.80307.19203.43645.24441.90782.0698.47136.0698.94273 0 .59357-.10475 1.18714-.10475.59358-.40153 1.09986-.29679.50628-.78561.8729-.47137.36662-1.04748.52374l2.6187 5.39452h-1.48393l-.38408-.80307-2.18225-4.50416h-1.50139v5.30723zm3.351939-6.52929q.29678 0 .59357-.0873.29678-.0873.52374-.26187.24441-.19204.40153-.45391.15712-.26187.24441-.5412.0873-.29678.12221-.59357.0349-.29679.0349-.61103 0-.29679-.0349-.59357-.0349-.29679-.12221-.57612-.0873-.29678-.24441-.55865-.15712-.26187-.40153-.43645-.22696-.19204-.52374-.27933-.29679-.0873-.59357-.0873h-1.99022v5.08028z"/><path d="m111.24792 144.79855q-.4539 0-.92527-.0873-.45391-.0873-.85544-.31424-.40154-.22695-.71578-.57611-.31424-.34916-.50628-.76816-.19204-.41899-.26187-.8729-.0698-.47136-.0698-.92527v-6.02301q0-.45391.0698-.90782.0698-.47136.26187-.89035.19204-.419.50628-.76816.31424-.34916.71578-.57611.40153-.22695.85544-.31424.47137-.0873.92527-.0873.43645 0 .85545.0698.43645.0698.82052.26187.40154.19204.71578.48882.3317.29679.52374.68086.2095.38408.31424.80307.10475.41899.10475.85544v.0524h-1.36172v-.0349q0-.38407-.13967-.76815-.1222-.38408-.40153-.6634-.26187-.27933-.64595-.40154-.38407-.1222-.78561-.1222-.43645 0-.85544.17458-.40153.15712-.6634.50628-.26187.34916-.36662.78561-.0873.41899-.0873.85544v6.02301q0 .43645.0873.8729.10475.41899.36662.76815.26187.34916.6634.52374.41899.15712.85544.15712.40154 0 .78561-.1222.38408-.12221.64595-.40154.27933-.27932.40153-.6634.13967-.38408.13967-.76815v-.0349h1.36172v.0524q0 .43645-.10475.85544-.10474.41899-.31424.80307-.19204.38407-.52374.68086-.31424.29678-.71578.48882-.38407.19204-.82052.26187-.419.0698-.85545.0698z"/><path d="m116.92177 144.65889v-12.83163h6.35472v1.22206h-4.99299v4.32958h4.01534v1.22206h-4.01534v4.83587h4.99299v1.22206z"/><path d="m125.51111 144.65889v-12.83163h3.35194q.47136 0 .92527.10475.47137.10475.8729.36662.40153.24441.69832.62848.29679.36662.47137.80307.19203.43645.24441.90782.0698.47136.0698.94273 0 .59357-.10475 1.18714-.10475.59358-.40153 1.09986-.29679.50628-.78561.8729-.47137.36662-1.04748.52374l2.6187 5.39452h-1.48393l-.38408-.80307-2.18225-4.50416h-1.50139v5.30723zm3.35194-6.52929q.29678 0 .59357-.0873.29678-.0873.52374-.26187.24441-.19204.40153-.45391.15712-.26187.24441-.5412.0873-.29678.12221-.59357.0349-.29679.0349-.61103 0-.29679-.0349-.59357-.0349-.29679-.12221-.57612-.0873-.29678-.24441-.55865-.15712-.26187-.40153-.43645-.22696-.19204-.52374-.27933-.29679-.0873-.59357-.0873h-1.99022v5.08028z"/><path d="m136.80644 144.65889v-5.09774l-2.89803-7.73389h1.44901l2.12988 5.81351 2.12987-5.81351h1.44902l-2.89803 7.73389v5.09774z"/><path d="m146.2163 144.79855q-.27933 0-.5412-.0873-.26187-.0698-.47136-.26187-.19204-.20949-.27933-.47136-.0698-.26187-.0698-.5412 0-.27933.0698-.5412.0873-.26187.27933-.45391.20949-.20949.47136-.27932.26187-.0873.5412-.0873.27933 0 .5412.0873.26187.0698.45391.27932.20949.19204.27932.45391.0873.26187.0873.5412 0 .27933-.0873.5412-.0698.26187-.27932.47136-.19204.19204-.45391.26187-.26187.0873-.5412.0873z"/><path d="m154.92784 144.79855q-.43645 0-.8729-.0698-.41899-.0698-.82052-.24441-.40154-.17458-.73324-.45391-.31424-.29678-.5412-.6634-.22695-.38408-.3317-.80307-.10475-.43645-.10475-.8729v-.0698h1.36173v.0524q0 .40154.13966.78561.13966.36662.43645.62849.29679.26187.68086.38408.38408.10474.78561.10474.40154 0 .80307-.1222.40153-.12221.68086-.40154.29679-.29678.43645-.68086.13967-.40153.13967-.82052 0-.43645-.19204-.85545-.17458-.43645-.48883-.75069-.31424-.3317-.69832-.55866-.38407-.24441-.78561-.4539-.38407-.2095-.78561-.43645-.38407-.22696-.73323-.50629-.34916-.27932-.66341-.61103-.29678-.3317-.50628-.73323-.20949-.40154-.3317-.83799-.10475-.43645-.10475-.89035 0-.419.0873-.83799.10475-.43645.29679-.82052.20949-.38408.50628-.69832.31424-.31425.69832-.50629.38408-.20949.80307-.27932.43645-.0873.8729-.0873.41899 0 .83798.0698.43645.0698.82053.26187.38407.17458.68086.47136.31424.29679.52374.68087.2095.36661.29679.78561.10474.41899.10474.83798v.0698h-1.36172v-.0524q0-.36662-.12221-.73324-.1222-.38407-.38407-.64594-.26187-.27933-.64595-.40154-.36662-.1222-.75069-.1222-.38408 0-.76815.13966-.38408.13966-.64595.43645-.26187.27933-.38408.6634-.1222.38408-.1222.76816 0 .4539.17458.89035.19204.419.48882.7507.31425.31424.69832.55865.38408.22696.78561.43645.40154.19204.78561.43645.38408.22696.73324.50629.36662.27932.6634.61103.29679.3317.50628.73323.22696.38408.33171.83799.1222.43645.1222.8729 0 .4539-.10475.89035-.10474.419-.31424.82053-.2095.38408-.5412.69832-.3317.29679-.73323.48882-.38408.19204-.83799.26187-.43645.0873-.8729.0873z"/><path d="m160.42711 144.65889v-12.83163h1.36173v5.58656h3.77092v-5.58656h1.36173v12.83163h-1.36173v-6.02301h-3.77092v6.02301z"/></g><g transform="translate(-.196268)"><path d="m119.07702 92.543101s11.67797-10.538279 25.56526.12876" fill="none" stroke="#1c1b19" stroke-width=".529167"/><g fill="#1c1b19"><path d="m143.73577 65.082601.20549-.227606-.0158.310184-8.12946 23.180121-.97809-.201639z"/><path d="m160.72668 81.9623.30624-.01564-.2305.208161-17.8035 9.16936-1.19578-.74515z"/><path d="m119.97549 65.082603-.20549-.227606.0158.310184 8.12946 23.180121.97809-.201639z"/><path d="m102.98457 81.9623-.30624-.01564.2305.208161 17.8035 9.16936 1.19578-.74515z"/></g></g><path d="m155.60244 94.032288c0 6.611702-2.67992 12.597472-7.01277 16.930322-4.33285 4.33284-10.31862 7.01276-16.93032 7.01276s-12.59747-2.67992-16.93032-7.01277c-4.33284-4.33285-7.01276-10.31862-7.01276-16.930312 0-6.611699 2.67992-12.59747 7.01277-16.930315 4.33284-4.332846 10.31861-7.012767 16.93031-7.012768s12.59747 2.679919 16.93032 7.012765 7.01277 10.318617 7.01277 16.930318z" fill="none" stroke-miterlimit="0" stroke-width="1.00012"/><g stroke-linejoin="round" stroke-width=".037962"><g transform="matrix(0 2.0223815 -2.0223815 0 390.29926 -22.243502)"><path d="m57.494489 119.15378-2.225367-3.10406 2.225366-3.10405" fill="#e02c6d"/><path d="m57.494488 112.94567 2.225367 3.10406-2.225366 3.10405" fill="#ff5c8f"/></g><g transform="matrix(1.4300403 1.430039 -1.430039 1.4300403 232.32587 -171.07318)"><path d="m57.494489 119.15378-2.225367-3.10406 2.225366-3.10405" fill="#68a8e4"/><path d="m57.494488 112.94567 2.225367 3.10406-2.225366 3.10405" fill="#2c78bf"/></g><g transform="matrix(2.0223815 0 0 2.0223815 15.38356 -164.60761)"><path d="m57.494489 119.15378-2.225367-3.10406 2.225366-3.10405" fill="#e02c6d"/><path d="m57.494488 112.94567 2.225367 3.10406-2.225366 3.10405" fill="#ff5c8f"/></g><g transform="matrix(1.4300396 -1.4300398 1.4300398 1.4300396 -133.44608 -6.634324)"><path d="m57.494489 119.15378-2.225367-3.10406 2.225366-3.10405" fill="#0aaeb3"/><path d="m57.494488 112.94567 2.225367 3.10406-2.225366 3.10405" fill="#2be4d0"/></g><g transform="matrix(0 -2.0223815 2.0223815 0 -126.98055 210.30808)"><path d="m57.494489 119.15378-2.225367-3.10406 2.225366-3.10405" fill="#baa67f"/><path d="m57.494488 112.94567 2.225367 3.10406-2.225366 3.10405" fill="#fce8c3"/></g><g transform="matrix(-1.4300388 -1.4300405 1.4300405 -1.4300388 30.992576 359.13766)"><path d="m57.494489 119.15378-2.225367-3.10406 2.225366-3.10405" fill="#ff8700"/><path d="m57.494488 112.94567 2.225367 3.10406-2.225366 3.10405" fill="#ff5f00"/></g><g transform="matrix(-2.0223815 0 0 -2.0223815 247.93514 352.67219)"><path d="m57.494489 119.15378-2.225367-3.10406 2.225366-3.10405" fill="#f75341"/><path d="m57.494488 112.94567 2.225367 3.10406-2.225366 3.10405" fill="#ef2f27"/></g><g transform="matrix(-1.4300405 1.4300388 -1.4300388 -1.4300405 396.76473 194.69906)"><path d="m57.494489 119.15378-2.225367-3.10406 2.225366-3.10405" fill="#98bc37"/><path d="m57.494488 112.94567 2.225367 3.10406-2.225366 3.10405" fill="#519f50"/></g><g transform="matrix(0 2.0223815 -2.0223815 0 390.29926 -22.243502)"><path d="m57.494489 119.15378-2.225367-3.10406 2.225366-3.10405" fill="#fed06e"/><path d="m57.494488 112.94567 2.225367 3.10406-2.225366 3.10405" fill="#fbb829"/></g></g><path d="m-686.12775-109.72176h-134.07269-134.07269l67.03634-116.11035 67.03635-116.11036 67.03635 116.11035z" fill="#918175" transform="matrix(.01847084 0 0 .01847084 66.512308 160.88694)"/><path d="m-686.12775-109.72176h-134.07269-134.07269l67.03634-116.11035 67.03635-116.11036 67.03635 116.11035z" fill="#918175" transform="matrix(.01847084 0 0 .01847084 227.10598 160.88694)"/><path d="m-686.12775-109.72176h-134.07269-134.07269l67.03634-116.11035 67.03635-116.11036 67.03635 116.11035z" fill="#918175" transform="matrix(.01847084 0 0 .01847084 146.80915 21.808736)"/></g></svg>