<svg height="216.86842mm" viewBox="0 0 529.13709 216.86842" width="529.13708mm" xmlns="http://www.w3.org/2000/svg"><g><path d="m.00000257677.00000506507h529.13705510661v216.86842484845h-529.13705510661z" fill="#1c1b19"/><g transform="matrix(5.7367471 0 0 5.7367471 -93.03516 -39.54088)"><g fill="#fce8c3" stroke-width=".264582"><path d="m31.68587 26.615604q0 2.221351-1.490455 3.797794-1.476124 1.576443-4.098751 1.576443-4.127414 0-6.033477-3.597156l1.805744-1.361473q1.418798 2.751609 4.213402 2.751609 1.289816 0 2.221351-.788221.931534-.802553.931534-2.364665 0-1.275485-1.605105-2.794603l-4.700666-4.385377q-1.963388-1.848738-1.963388-4.643341 0-2.235683 1.447461-3.754801 1.447461-1.5191172 3.96977-1.5191172 3.281867 0 5.316912 2.9952412l-1.8774 1.476124q-1.20383-2.250014-3.425181-2.250014-1.275486 0-2.135363.730896-.845547.730897-.845547 2.307339 0 1.633769 1.289817 2.823266l4.672003 4.356715q2.307339 2.178358 2.307339 4.643341z"/><path d="m40.829239 21.742962h-2.53664v9.974584h-2.436321v-21.8695616h4.772323q2.909254 0 4.328052 1.5764426 1.418799 1.576443 1.418799 4.227733 0 2.250014-.917203 3.697476-.902872 1.447461-2.250014 1.949056l.257963.401277q2.722947 4.242064 3.009573 9.043049l.05732.974528h-2.436321l-.04299-.759558q-.272294-4.586016-2.866259-8.627442zm-2.53664-2.063707h2.321671q1.691093 0 2.464983-1.003191.77389-1.00319.77389-3.038235 0-2.006382-.77389-2.851928-.77389-.859878-2.464983-.859878h-2.321671z"/><path d="m61.466309 28.478673q-2.035044 3.511168-5.560544 3.511168-2.378995 0-4.012763-1.590774-1.633768-1.590774-1.633768-5.861501v-7.538263q0-4.141746 1.633768-5.804177 1.633768-1.6624302 3.984101-1.6624302 3.683144 0 5.445893 3.5541622l-1.99205 1.203829q-1.089179-2.53664-3.439512-2.53664-1.361473 0-2.278676 1.003191-.902872.98886-.902872 4.242065v7.538263q0 3.253205.902872 4.256395.917203.98886 2.278676.98886 2.350333 0 3.582825-2.65129z"/><path d="m75.367668 31.717546h-10.089234v-21.8695616h10.089234v2.0780386h-7.652913v7.079661h5.646532v2.078039h-5.646532v8.555785h7.652913z"/><path d="m84.854989 21.742962h-2.53664v9.974584h-2.436321v-21.8695616h4.772323q2.909254 0 4.328052 1.5764426 1.418799 1.576443 1.418799 4.227733 0 2.250014-.917203 3.697476-.902872 1.447461-2.250014 1.949056l.257963.401277q2.722947 4.242064 3.009573 9.043049l.05733.974528h-2.436321l-.04299-.759558q-.272294-4.586016-2.866259-8.627442zm-2.53664-2.063707h2.321671q1.691093 0 2.464983-1.003191.77389-1.00319.77389-3.038235 0-2.006382-.77389-2.851928-.77389-.859878-2.464983-.859878h-2.321671z"/><path d="m100.47611 31.717546h-2.436325v-9.315344l-2.350333-4.299389q-2.278676-4.141746-2.278676-7.251638v-1.0031906h2.43632v1.0031906q0 2.75161 1.691094 6.076471l1.719756 3.367855 1.719754-3.367855q1.69109-3.324861 1.69109-6.076471v-1.0031906h2.43633v1.0031906q0 3.109892-2.27868 7.251638l-2.35033 4.299389z"/></g><g fill-rule="evenodd" stroke-width=".657803" transform="matrix(1.9396549 0 0 1 -141.21604 -53.167724)"><path d="m83.148411 87.071426h2.660133v8.03292h-2.660133z" fill="#ff3128"/><path d="m86.892395 87.071426h2.660133v8.03292h-2.660133z" fill="#f75341"/><path d="m90.636368 87.071426h2.660133v8.03292h-2.660133z" fill="#519f50"/><path d="m94.380341 87.071426h2.660133v8.03292h-2.660133z" fill="#98bc37"/><path d="m98.124313 87.071426h2.660133v8.03292h-2.660133z" fill="#fbb829"/><path d="m101.86829 87.071426h2.660133v8.03292h-2.660133z" fill="#fed06e"/><path d="m105.61226 87.071426h2.660133v8.03292h-2.660133z" fill="#5573a3"/><path d="m109.35623 87.071426h2.660133v8.03292h-2.660133z" fill="#8eb2f7"/><path d="m113.1002 87.071426h2.660133v8.03292h-2.660133z" fill="#e02c6d"/><path d="m116.84418 87.071426h2.660133v8.03292h-2.660133z" fill="#e35682"/><path d="m120.58814 87.071426h2.660133v8.03292h-2.660133z" fill="#0aaeb3"/><path d="m124.33212 87.071426h2.660133v8.03292h-2.660133z" fill="#53fde9"/></g></g></g></svg>