<svg height="600" viewBox="0 0 529.16667 158.75" width="2000.0001" xmlns="http://www.w3.org/2000/svg"><g><path d="m0 0h529.16669v158.75h-529.16669z" fill="#1c1b19" fill-rule="evenodd"/><g transform="matrix(.78754649 0 0 .78754649 181.650098 -2.551245)"><g fill="#fce8c3" stroke-width="1.52113" transform="scale(1.0021611 .99784356)"><path d="m13.9206 90.442214q-1.825352 0-3.650705-.292057-1.7523382-.292056-3.4316625-1.022197-1.6793243-.730141-3.0665922-1.898367-1.3142538-1.241239-2.2634371-2.774535-.94918324-1.606311-1.38726784-3.358649-.43808459-1.825352-.43808459-3.650705v-.292056h5.69509973v.219042q0 1.679324.5841128 3.285634.5841128 1.533296 1.8253525 2.628508 1.2412397 1.095211 2.8475502 1.60631 1.60631.438085 3.285634.438085 1.679324 0 3.358649-.511099 1.679324-.511099 2.84755-1.679324 1.241239-1.24124 1.825352-2.84755.584113-1.679324.584113-3.431663 0-1.825352-.803155-3.577691-.730141-1.825352-2.044395-3.139606-1.314254-1.387268-2.920564-2.336451-1.60631-1.022197-3.285634-1.898367-1.606311-.876169-3.285635-1.825352-1.6063101-.949183-3.0665921-2.117409-1.460282-1.168226-2.7745358-2.555493-1.2412397-1.387268-2.1174089-3.066593-.8761692-1.679324-1.38726785-3.504676-.43808459-1.825353-.43808459-3.723719 0-1.752339.3650705-3.504677.43808464-1.825353 1.24123964-3.431663.8761692-1.60631 2.1174089-2.920564 1.3142538-1.314254 2.920564-2.117409 1.6063102-.876169 3.3586482-1.168225 1.825353-.365071 3.650705-.365071 1.752339 0 3.504677.292057 1.825353.292056 3.431663 1.095211 1.60631.730141 2.84755 1.971381 1.314253 1.241239 2.190423 2.84755.876169 1.533296 1.241239 3.285634.438085 1.752339.438085 3.504677v.292056h-5.6951v-.219042q0-1.533296-.511099-3.066592-.511098-1.60631-1.60631-2.701522-1.095211-1.168225-2.701521-1.679324-1.533297-.511099-3.139607-.511099-1.60631 0-3.21262.584113-1.6063102.584113-2.7015217 1.825352-1.0952115 1.168226-1.6063102 2.774536-.5110987 1.60631-.5110987 3.212621 0 1.898366.730141 3.723719.8031551 1.752338 2.0443948 3.139606 1.3142538 1.314254 2.9205638 2.336451 1.60631.949183 3.285635 1.825353 1.679324.803155 3.285634 1.825352 1.60631.949183 3.066592 2.117409 1.533296 1.168225 2.774536 2.555493 1.24124 1.387268 2.117409 3.066593.949183 1.60631 1.387268 3.504676.511098 1.825353.511098 3.650705 0 1.898367-.438084 3.723719-.438085 1.752339-1.314254 3.431663-.876169 1.60631-2.263437 2.920564-1.387268 1.24124-3.066592 2.044395-1.60631.803155-3.504677 1.095211-1.825352.365071-3.650705.365071z"/><path d="m36.920041 89.858101v-53.665363h14.018707q1.971381 0 3.869748.438085 1.97138.438084 3.650705 1.533296 1.679324 1.022197 2.920564 2.628507 1.241239 1.533296 1.97138 3.358649.803155 1.825352 1.022198 3.796733.292056 1.971381.292056 3.942761 0 2.48248-.438085 4.964959-.438084 2.482479-1.679324 4.599888-1.24124 2.117409-3.285634 3.650705-1.971381 1.533296-4.380846 2.190423l10.952115 22.561357h-6.206199l-1.60631-3.358649-9.126762-18.837637h-6.279213v22.196286zm14.018707-27.307273q1.24124 0 2.48248-.365071 1.241239-.36507 2.190423-1.095211 1.022197-.803155 1.679324-1.898367.657127-1.095211 1.022197-2.263437.365071-1.241239.511099-2.482479.146028-1.24124.146028-2.555494 0-1.241239-.146028-2.482479-.146028-1.24124-.511099-2.409465-.36507-1.24124-1.022197-2.336451-.657127-1.095212-1.679324-1.825353-.949184-.803155-2.190423-1.168226-1.24124-.36507-2.48248-.36507h-8.323607v21.247103z"/><path d="m86.788671 90.442214q-1.898367 0-3.869747-.365071-1.898367-.36507-3.577691-1.314254-1.679324-.949183-2.993578-2.409465-1.314254-1.460282-2.117409-3.21262-.803155-1.752339-1.095212-3.650705-.292056-1.971381-.292056-3.869747v-25.189865q0-1.898366.292056-3.796733.292057-1.97138 1.095212-3.723719.803155-1.752338 2.117409-3.21262 1.314254-1.460282 2.993578-2.409465 1.679324-.949184 3.577691-1.314254 1.97138-.365071 3.869747-.365071 1.825352 0 3.577691.292057 1.825352.292056 3.431663 1.095211 1.679324.803155 2.993578 2.044395 1.387267 1.24124 2.190423 2.84755.876169 1.60631 1.314254 3.358648.43808 1.752339.43808 3.577691v.219042h-5.695096v-.146028q0-1.60631-.584113-3.21262-.511098-1.60631-1.679324-2.774536-1.095211-1.168225-2.701522-1.679324-1.60631-.511099-3.285634-.511099-1.825352 0-3.577691.730141-1.679324.657127-2.774536 2.117409-1.095211 1.460282-1.533296 3.285635-.36507 1.752338-.36507 3.57769v25.189865q0 1.825352.36507 3.650705.438085 1.752338 1.533296 3.21262 1.095212 1.460282 2.774536 2.190423 1.752339.657127 3.577691.657127 1.679324 0 3.285634-.511099 1.606311-.511099 2.701522-1.679324 1.168226-1.168226 1.679324-2.774536.584113-1.60631.584113-3.21262v-.146029h5.695096v.219043q0 1.825352-.43808 3.577691-.438085 1.752338-1.314254 3.358648-.803156 1.60631-2.190423 2.84755-1.314254 1.24124-2.993578 2.044395-1.606311.803155-3.431663 1.095211-1.752339.292057-3.577691.292057z"/><path d="m110.51825 89.858101v-53.665363h26.57714v5.110987h-20.88204v18.107497h16.79325v5.110986h-16.79325v20.224906h20.88204v5.110987z"/><path d="m146.44119 89.858101v-53.665363h14.01871q1.97138 0 3.86974.438085 1.97138.438084 3.65071 1.533296 1.67932 1.022197 2.92056 2.628507 1.24124 1.533296 1.97138 3.358649.80316 1.825352 1.0222 3.796733.29206 1.971381.29206 3.942761 0 2.48248-.43809 4.964959-.43808 2.482479-1.67932 4.599888-1.24124 2.117409-3.28564 3.650705-1.97138 1.533296-4.38084 2.190423l10.95211 22.561357h-6.2062l-1.60631-3.358649-9.12676-18.837637h-6.27921v22.196286zm14.01871-27.307273q1.24124 0 2.48248-.365071 1.24124-.36507 2.19042-1.095211 1.0222-.803155 1.67932-1.898367.65713-1.095211 1.0222-2.263437.36507-1.241239.5111-2.482479.14603-1.24124.14603-2.555494 0-1.241239-.14603-2.482479-.14603-1.24124-.5111-2.409465-.36507-1.24124-1.0222-2.336451-.65712-1.095212-1.67932-1.825353-.94918-.803155-2.19042-1.168226-1.24124-.36507-2.48248-.36507h-8.32361v21.247103z"/><path d="m193.68131 89.858101v-21.320117l-12.12034-32.345246h6.06017l8.90772 24.313695 8.90772-24.313695h6.06017l-12.12034 32.345246v21.320117z"/></g><g fill-rule="evenodd"><path d="m-.24457862 99.635371h12.80809762v46.082829h-12.80809762z" fill="#ef2f27"/><path d="m17.782082 99.635376h12.808098v46.082829h-12.808098z" fill="#f75341"/><path d="m35.808689 99.635376h12.808098v46.082829h-12.808098z" fill="#519f50"/><path d="m53.835293 99.635376h12.808098v46.082829h-12.808098z" fill="#98bc37"/><path d="m71.8619 99.635376h12.808098v46.082829h-12.808098z" fill="#fbb829"/><path d="m89.888542 99.635376h12.808098v46.082829h-12.808098z" fill="#fed06e"/><path d="m107.91512 99.635376h12.808098v46.082829h-12.808098z" fill="#2c78bf"/><path d="m125.94172 99.635376h12.808098v46.082829h-12.808098z" fill="#68a8e4"/><path d="m143.96829 99.635376h12.808098v46.082829h-12.808098z" fill="#e02c6d"/><path d="m161.99493 99.635376h12.808098v46.082829h-12.808098z" fill="#ff5c8f"/><path d="m180.0215 99.635376h12.808098v46.082829h-12.808098z" fill="#0aaeb3"/><path d="m198.04814 99.635376h12.808098v46.082829h-12.808098z" fill="#53fde9"/></g><g fill="#fce8c3" stroke-width=".248375"><path d="m2.5557108 168.5724v-12.33269h-2.83744627v-1.29818h7.12143387v1.29818h-2.8374463v12.33269z"/><path d="m12.588773 168.72077q-.500726 0-1.001452-.0927-.500726-.0927-.945816-.33382-.426544-.25963-.7789063-.63054-.3338172-.38946-.5563621-.83454-.2039994-.46364-.278181-.96437-.074182-.50072-.074182-1.00145v-2.22545q0-.50072.074182-1.00145.074182-.50072.278181-.94581.2039995-.46364.5378167-.83455.3523627-.38945.7789067-.63054.426544-.24109.92727-.33382.500726-.11127 1.001452-.11127.500726 0 1.001451.11127.500726.0927.92727.33382.426545.24109.760362.63054.352362.37091.556362.83455.203999.44509.278181.94581.07418.50073.07418 1.00145v1.76182h-5.749074v.46363q0 .31527.03709.63055.03709.31527.148363.61199.129818.29673.315272.55637.204.25963.463635.44509.278181.1669.593453.24109.315272.0742.630544.0742.352362 0 .704725-.0742.370908-.0742.667634-.25964.296727-.18545.482181-.50072.203999-.31528.222544-.68618h1.446542q-.01855.42654-.166909.83454-.129818.38945-.389453.74181-.241091.33382-.593453.59346-.333817.24109-.723271.38945-.389453.14836-.815997.204-.426545.0556-.834543.0556zm2.114175-5.61926v-.46364q0-.31527-.03709-.63054-.03709-.31527-.148363-.612-.111272-.29672-.315272-.55636-.185454-.25963-.445089-.42654-.259636-.18546-.574908-.25964-.315271-.0742-.630543-.0742-.315272 0-.630544.0742-.315272.0742-.574907.25964-.259636.16691-.463635.42654-.185454.25964-.296727.55636-.111272.29673-.148363.612-.03709.31527-.03709.63054v.46364z"/><path d="m19.487662 168.5724v-9.64361h1.446541v2.00291q.129818-.408.315272-.79745.203999-.38946.500725-.70473.296727-.31527.704726-.48218.407999-.16691.834543-.16691.352362 0 .68618.0927.352362.0742.630543.27818.278181.18545.463635.48218.185454.29673.296727.63054.111272.31528.148363.66764.03709.33382.03709.68618h-1.446542q0-.27818-.05564-.53782-.03709-.27818-.185454-.51927-.129818-.24109-.389453-.35236-.24109-.12982-.519271-.12982-.370909 0-.723271.16691-.333817.14836-.574908.42654-.222544.27818-.370908.63055-.148363.33381-.222544.70472-.07418.35236-.111273.72327-.01854.37091-.01854.72327v5.11853z"/><path d="m27.35091 168.5724v-9.64361h1.446542v.77891q.09273-.204.222545-.37091.129817-.18545.296726-.31527.185454-.12982.389453-.18545.222545-.0556.44509-.0556.278181 0 .537817.0927.259635.0927.445089.27818.204.18545.333817.42654.129818.24109.204.51927.07418-.25963.203999-.50072.129818-.25964.315272-.44509.185454-.18545.44509-.27818.259635-.0927.537816-.0927.278181 0 .537817.11127.278181.0927.48218.29673.204.18545.315272.44509.129818.25964.204.53782.07418.25963.09273.53781.03709.27818.03709.55637v7.30688h-1.446541v-7.30688q0-.204-.03709-.38946-.01855-.204-.111272-.38945-.09273-.18546-.278181-.29673-.166909-.11127-.370908-.11127-.185454 0-.370908.11127-.166909.11127-.259636.29673-.09273.18545-.129818.38945-.01854.18546-.01854.38946v7.30688h-1.446541v-7.30688q0-.204-.03709-.38946-.01854-.204-.111272-.38945-.09273-.18546-.278181-.29673-.166909-.11127-.352363-.11127-.203999 0-.389453.11127-.166909.11127-.259636.29673-.09273.18545-.129818.38945-.01854.18546-.01854.38946v7.30688z"/><path d="m37.124338 168.5724v-1.29818h2.651992v-7.04725h-2.392357v-1.29818h3.838898v8.34543h2.392357v1.29818zm3.245445-11.2756q-.241091 0-.463635-.0556-.222545-.0742-.389454-.24109-.166908-.16691-.24109-.38945-.05564-.22255-.05564-.46364 0-.24109.05564-.46363.07418-.22255.24109-.38945.166909-.16691.389454-.24109.222544-.0742.463635-.0742.24109 0 .463635.0742.222545.0742.389453.24109.166909.1669.24109.38945.07418.22254.07418.46363 0 .24109-.07418.46364-.07418.22254-.24109.38945-.166908.16691-.389453.24109-.222545.0556-.463635.0556z"/><path d="m46.193039 168.5724v-9.64361h1.446542v1.68764q.148363-.38946.389453-.74182.24109-.35236.574908-.612.352362-.25963.760361-.37091.426544-.11127.834543-.11127.463635 0 .908725.12982.445089.12982.778906.42654.352363.27818.593453.68618.24109.38946.370908.83455.148363.42654.185454.89018.05564.44509.05564.89017v5.93453h-1.446541v-5.93453q0-.31527-.03709-.61199-.03709-.31528-.129817-.59346-.09273-.29672-.278181-.55636-.166909-.25963-.407999-.44509-.24109-.18545-.537817-.25963-.296726-.0927-.611998-.0927-.315272 0-.611998.0927-.296727.0742-.537817.25963-.24109.18546-.426544.44509-.166909.25964-.259636.55636-.09273.27818-.129818.59346-.03709.29672-.03709.61199v5.93453z"/><path d="m58.025002 168.72077q-.556362 0-1.094178-.16691-.537817-.16691-.92727-.57491-.370909-.408-.537817-.94582-.148363-.53781-.148363-1.07563 0-.48218.111272-.94581.129818-.46364.407999-.83455.296726-.37091.704725-.612.407999-.25963.853089-.40799.463635-.14837.92727-.204.463635-.0556.945815-.0556h1.650541v-.90872q0-.38946-.129818-.77891-.129818-.38945-.426544-.64909-.296727-.25964-.68618-.37091-.389454-.11127-.778907-.11127-.370908 0-.741816.0742-.352363.0742-.649089.27818-.296726.204-.463635.53782-.166909.33382-.166909.68618h-1.446541q0-.42655.111272-.83454.129818-.408.370908-.76037.241091-.35236.574908-.59345.352363-.25963.741816-.408.389453-.16691.815998-.22254.426544-.0556.853088-.0556.44509 0 .890179.0742.44509.0556.853089.24109.407998.18546.741816.48218.352362.29673.574907.68618.222545.38946.315272.83455.09273.44509.09273.89018v6.58361h-1.446541v-1.5949q-.166909.408-.482181.76036-.296726.33382-.68618.57491-.389453.22254-.834543.31527-.445089.0927-.890179.0927zm.556362-1.29818q.44509 0 .890179-.11127.463635-.12982.797453-.42655.333817-.31527.48218-.74181.166909-.44509.166909-.90873v-1.03854h-1.650541q-.278181 0-.574907.0371-.278181.0185-.556362.0927-.259636.0556-.519272.18545-.259635.11127-.463635.29673-.203999.18545-.296726.46363-.09273.25964-.09273.53782 0 .33382.129818.66763.129818.33382.389453.55636.259636.22255.593453.31528.352363.0742.704725.0742z"/><path d="m64.942441 168.5724v-1.29818h2.651993v-11.03451h-2.392357v-1.29818h3.838898v12.33269h2.392357v1.29818z"/><path d="m86.677645 168.72077q-.48218 0-.982906-.11128-.500726-.0927-.92727-.33381-.426544-.25964-.760362-.63055-.315271-.38945-.519271-.83454-.203999-.46364-.278181-.94582-.07418-.50072-.07418-1.00145v-2.22545q0-.50072.07418-.9829.07418-.50073.278181-.94582.204-.46363.519271-.83454.333818-.38945.760362-.63054.426544-.25964.92727-.35237.500726-.11127.982906-.11127.463635 0 .92727.0927.463635.0742.871634.27818.426544.204.760361.53782.333818.31527.556362.72327.222545.408.315272.87163.111273.44509.111273.90873v.0371h-1.446542v-.0186q0-.42654-.129817-.83454-.129818-.408-.426545-.70473-.296726-.31527-.704725-.44509-.407999-.14836-.834543-.14836-.315272 0-.630543.0742-.296727.0742-.556362.25964-.259636.18545-.44509.44509-.166909.25963-.278181.55636-.111272.27818-.148363.59345-.03709.31527-.03709.63054v2.22545q0 .31527.03709.63055.03709.31527.148363.61199.111272.27819.278181.53782.185454.25964.44509.44509.259635.18545.556362.25964.315271.0742.630543.0742.426544 0 .834543-.12982.407999-.14836.704725-.44509.296727-.31527.426545-.72327.129817-.408.129817-.83454v-.0186h1.446542v.0371q0 .46364-.111273.92727-.09273.44509-.315272.85309-.222544.408-.556362.74182-.333817.31527-.760361.51927-.407999.204-.871634.27818-.463635.0927-.92727.0927z"/><path d="m96.005986 168.72077q-.500725 0-1.001451-.11128-.500726-.0927-.92727-.33381-.426544-.24109-.778907-.612-.333817-.38946-.537817-.83454-.203999-.46364-.278181-.96437-.07418-.50072-.07418-1.00145v-2.22545q0-.50072.07418-1.00145.07418-.50072.278181-.94581.204-.46364.537817-.83455.352363-.38945.778907-.63054.426544-.24109.92727-.33382.500726-.11127 1.001451-.11127.500726 0 1.001452.11127.500726.0927.92727.33382.426544.24109.760362.63054.352362.37091.556362.83455.203999.44509.278181.94581.07418.50073.07418 1.00145v2.22545q0 .50073-.07418 1.00145-.07418.50073-.278181.96437-.204.44508-.556362.83454-.333818.37091-.760362.612-.426544.24109-.92727.33381-.500726.11128-1.001452.11128zm0-1.29818q.315272 0 .630544-.0742.315272-.0742.574907-.24109.259636-.18546.44509-.44509.204-.25964.315272-.55637.111272-.29672.148363-.61199.03709-.31528.03709-.63055v-2.22545q0-.31527-.03709-.63054-.03709-.31527-.148363-.612-.111272-.29672-.315272-.55636-.185454-.25963-.44509-.42654-.259635-.18546-.574907-.25964-.315272-.0742-.630544-.0742-.315271 0-.630543.0742-.315272.0742-.574908.25964-.259635.16691-.463635.42654-.185454.25964-.296726.55636-.111272.29673-.148363.612-.03709.31527-.03709.63054v2.22545q0 .31527.03709.63055.03709.31527.148363.61199.111272.29673.296726.55637.204.25963.463635.44509.259636.1669.574908.24109.315272.0742.630543.0742z"/><path d="m101.82924 168.5724v-9.64361h1.44654v1.68764q.14836-.38946.38945-.74182.24109-.35236.57491-.612.35236-.25963.76036-.37091.42655-.11127.83455-.11127.46363 0 .90872.12982.44509.12982.77891.42654.35236.27818.59345.68618.24109.38946.37091.83455.14836.42654.18545.89018.0556.44509.0556.89017v5.93453h-1.44654v-5.93453q0-.31527-.0371-.61199-.0371-.31528-.12982-.59346-.0927-.29672-.27818-.55636-.16691-.25963-.408-.44509-.24109-.18545-.53782-.25963-.29672-.0927-.612-.0927-.31527 0-.61199.0927-.29673.0742-.53782.25963-.24109.18546-.42655.44509-.1669.25964-.25963.55636-.0927.27818-.12982.59346-.0371.29672-.0371.61199v5.93453z"/><path d="m113.16048 168.5724v-7.45525h-2.05854v-1.31672h2.05854v-1.96581q0-.37091.0371-.74182.0556-.38945.18545-.74182.14836-.35236.37091-.66763.22254-.31527.53782-.51927.33381-.204.70472-.27818.37091-.0927.74182-.0927.51927 0 1.01999.16691.51928.14836.87164.53782.35236.3709.51927.87163.16691.50073.16691 1.02v.14836h-1.44654v-.0742q0-.25964-.0556-.50073-.0556-.25963-.204-.46363-.14836-.204-.38945-.29673-.22255-.11127-.48218-.11127-.29673 0-.55637.16691-.24109.16691-.3709.42654-.12982.25964-.18546.55636-.0371.29673-.0371.59346v1.96581h3.05999v1.29818h-3.05999v7.47379z"/><path d="m120.57864 168.5724v-1.29818h2.65199v-7.04725h-2.39235v-1.29818h3.83889v8.34543h2.39236v1.29818zm3.24545-11.2756q-.24109 0-.46364-.0556-.22254-.0742-.38945-.24109-.16691-.16691-.24109-.38945-.0556-.22255-.0556-.46364 0-.24109.0556-.46363.0742-.22255.24109-.38945.16691-.16691.38945-.24109.22255-.0742.46364-.0742.24109 0 .46363.0742.22255.0742.38945.24109.16691.1669.2411.38945.0742.22254.0742.46363 0 .24109-.0742.46364-.0742.22254-.2411.38945-.1669.16691-.38945.24109-.22254.0556-.46363.0556z"/><path d="m133.04116 172.70803q-.42655 0-.85309-.0742-.408-.0556-.79746-.22255-.38945-.14836-.72327-.42654-.33381-.25964-.5749-.612-.22255-.35236-.35237-.76036-.11127-.408-.12981-.83455h1.44654q.0185.37091.16691.68618.1669.33382.44509.55637.29672.22254.64908.29672.35237.0927.72328.0927.31527 0 .61199-.0742.31528-.0742.55637-.25964.25963-.18545.42654-.44509.18545-.25963.27818-.55636.11127-.29673.14836-.612.0371-.29672.0371-.612v-1.96581q-.14836.38945-.38945.76036-.24109.35237-.59345.612-.33382.24109-.76036.35236-.408.11128-.83455.11128-.46363 0-.92727-.12982-.44509-.12982-.81599-.408-.37091-.27818-.63055-.66763-.24109-.38946-.38945-.816-.14836-.44509-.204-.90873-.0556-.46363-.0556-.92727v-2.22545q0-.46363.0556-.92727.0556-.46363.204-.89017.14836-.44509.38945-.83455.25964-.38945.63055-.66763.3709-.27818.81599-.408.46364-.12982.92727-.12982.42655 0 .83455.11127.42654.11128.76036.37091.35236.24109.59345.612.24109.35236.38945.74182v-1.68764h1.44655v9.92179q0 .50073-.0742.98291-.0742.50073-.27818.94582-.18545.46363-.51927.83454-.31527.38945-.74181.63054-.42655.25964-.92727.35236-.48218.11128-.96436.11128zm.0371-5.28544q.31527 0 .61199-.0742.31528-.0742.55637-.25964.24109-.18545.408-.44509.18545-.27818.27818-.55636.0927-.29673.12981-.59345.0371-.31528.0371-.63055v-2.22545q0-.31527-.0371-.61199-.0371-.31528-.12981-.59346-.0927-.29672-.27818-.55636-.16691-.27818-.408-.46363-.24109-.18546-.55637-.25964-.29672-.0742-.61199-.0742-.31528 0-.63055.0742-.29672.0742-.55636.25964-.25964.16691-.46363.42654-.18546.25964-.29673.55636-.11127.29673-.14836.612-.0371.31527-.0371.63054v2.22545q0 .31527.0371.63055.0371.31527.14836.61199.11127.29673.29673.55637.20399.25963.46363.44509.25964.1669.55636.24109.31527.0742.63055.0742z"/><path d="m141.81312 168.72077q-.46364 0-.90873-.12982-.44508-.12982-.79745-.408-.33381-.29673-.5749-.68618-.2411-.408-.38946-.83454-.12982-.44509-.18545-.89018-.0371-.46364-.0371-.90873v-5.93453h1.44654v5.93453q0 .31527.0371.63055.0371.29672.12982.59345.0927.27818.25963.53782.18546.25963.42655.44509.24109.18545.53781.27818.29673.0742.612.0742.31527 0 .612-.0742.29673-.0927.53782-.27818.24109-.18546.40799-.44509.18546-.25964.27819-.53782.0927-.29673.12981-.59345.0371-.31528.0371-.63055v-5.93453h1.44655v9.64361h-1.44655v-1.68763q-.14836.38945-.38945.74182-.24109.35236-.59345.612-.33382.25963-.76036.3709-.408.11128-.816.11128z"/><path d="m149.30547 168.5724v-9.64361h1.44654v2.00291q.12981-.408.31527-.79745.204-.38946.50072-.70473.29673-.31527.70473-.48218.408-.16691.83454-.16691.35237 0 .68618.0927.35237.0742.63055.27818.27818.18545.46363.48218.18546.29673.29673.63054.11127.31528.14836.66764.0371.33382.0371.68618h-1.44654q0-.27818-.0556-.53782-.0371-.27818-.18545-.51927-.12982-.24109-.38945-.35236-.24109-.12982-.51927-.12982-.37091 0-.72327.16691-.33382.14836-.57491.42654-.22255.27818-.37091.63055-.14836.33381-.22255.70472-.0742.35236-.11127.72327-.0185.37091-.0185.72327v5.11853z"/><path d="m160.02471 168.72077q-.55636 0-1.09418-.16691-.53781-.16691-.92727-.57491-.3709-.408-.53781-.94582-.14837-.53781-.14837-1.07563 0-.48218.11128-.94581.12981-.46364.40799-.83455.29673-.37091.70473-.612.408-.25963.85309-.40799.46363-.14837.92727-.204.46363-.0556.94581-.0556h1.65054v-.90872q0-.38946-.12981-.77891-.12982-.38945-.42655-.64909-.29672-.25964-.68618-.37091-.38945-.11127-.7789-.11127-.37091 0-.74182.0742-.35236.0742-.64909.27818-.29673.204-.46363.53782-.16691.33382-.16691.68618h-1.44654q0-.42655.11127-.83454.12982-.408.37091-.76037.24109-.35236.5749-.59345.35237-.25963.74182-.408.38945-.16691.816-.22254.42654-.0556.85309-.0556.44509 0 .89018.0742.44508.0556.85308.24109.408.18546.74182.48218.35236.29673.57491.68618.22254.38946.31527.83455.0927.44509.0927.89018v6.58361h-1.44655v-1.5949q-.1669.408-.48218.76036-.29672.33382-.68618.57491-.38945.22254-.83454.31527-.44509.0927-.89018.0927zm.55636-1.29818q.44509 0 .89018-.11127.46364-.12982.79746-.42655.33381-.31527.48218-.74181.1669-.44509.1669-.90873v-1.03854h-1.65054q-.27818 0-.5749.0371-.27818.0185-.55637.0927-.25963.0556-.51927.18545-.25963.11127-.46363.29673-.204.18545-.29673.46363-.0927.25964-.0927.53782 0 .33382.12981.66763.12982.33382.38946.55636.25963.22255.59345.31528.35236.0742.70472.0742z"/><path d="m171.41158 168.72077q-.408 0-.83455-.11128-.40799-.0927-.76036-.33381-.33381-.25964-.5749-.612-.24109-.35236-.38946-.74182-.12982-.408-.18545-.816-.0371-.42654-.0371-.85308v-5.02581h-1.78036v-1.29818h1.78036v-3.98726h1.44654v3.98726h3.26399v1.29818h-3.26399v5.02581q0 .24109.0185.48218.0186.24109.0742.48218.0556.22254.14836.44509.0927.22254.24109.408.16691.1669.38945.25963.24109.0927.46364.0927.22254 0 .42654-.0742.22255-.0742.37091-.22255.16691-.14836.25964-.33382.11127-.20399.1669-.40799.0742-.22255.0927-.44509.0371-.22255.0371-.44509v-.11128h1.44654v.18546q0 .408-.0742.79745-.0742.38945-.22254.76036-.14837.35236-.408.68618-.24109.31527-.57491.53782-.33382.204-.72327.27818-.38945.0927-.79745.0927z"/><path d="m176.21484 168.5724v-1.29818h2.65199v-7.04725h-2.39235v-1.29818h3.83889v8.34543h2.39236v1.29818zm3.24545-11.2756q-.24109 0-.46364-.0556-.22254-.0742-.38945-.24109-.16691-.16691-.24109-.38945-.0556-.22255-.0556-.46364 0-.24109.0556-.46363.0742-.22255.24109-.38945.16691-.16691.38945-.24109.22255-.0742.46364-.0742.24109 0 .46363.0742.22255.0742.38945.24109.16691.1669.2411.38945.0742.22254.0742.46363 0 .24109-.0742.46364-.0742.22254-.2411.38945-.1669.16691-.38945.24109-.22254.0556-.46363.0556z"/><path d="m188.73299 168.72077q-.50072 0-1.00145-.11128-.50073-.0927-.92727-.33381-.42654-.24109-.77891-.612-.33381-.38946-.53781-.83454-.204-.46364-.27818-.96437-.0742-.50072-.0742-1.00145v-2.22545q0-.50072.0742-1.00145.0742-.50072.27818-.94581.204-.46364.53781-.83455.35237-.38945.77891-.63054.42654-.24109.92727-.33382.50073-.11127 1.00145-.11127.50073 0 1.00145.11127.50073.0927.92727.33382.42655.24109.76036.63054.35237.37091.55637.83455.204.44509.27818.94581.0742.50073.0742 1.00145v2.22545q0 .50073-.0742 1.00145-.0742.50073-.27818.96437-.204.44508-.55637.83454-.33381.37091-.76036.612-.42654.24109-.92727.33381-.50072.11128-1.00145.11128zm0-1.29818q.31527 0 .63055-.0742.31527-.0742.5749-.24109.25964-.18546.44509-.44509.204-.25964.31527-.55637.11128-.29672.14837-.61199.0371-.31528.0371-.63055v-2.22545q0-.31527-.0371-.63054-.0371-.31527-.14837-.612-.11127-.29672-.31527-.55636-.18545-.25963-.44509-.42654-.25963-.18546-.5749-.25964-.31528-.0742-.63055-.0742-.31527 0-.63054.0742-.31527.0742-.57491.25964-.25964.16691-.46363.42654-.18546.25964-.29673.55636-.11127.29673-.14836.612-.0371.31527-.0371.63054v2.22545q0 .31527.0371.63055.0371.31527.14836.61199.11127.29673.29673.55637.20399.25963.46363.44509.25964.1669.57491.24109.31527.0742.63054.0742z"/><path d="m194.55624 168.5724v-9.64361h1.44654v1.68764q.14836-.38946.38945-.74182.24109-.35236.57491-.612.35236-.25963.76036-.37091.42654-.11127.83454-.11127.46364 0 .90873.12982.44509.12982.7789.42654.35237.27818.59346.68618.24109.38946.37091.83455.14836.42654.18545.89018.0556.44509.0556.89017v5.93453h-1.44655v-5.93453q0-.31527-.0371-.61199-.0371-.31528-.12981-.59346-.0927-.29672-.27819-.55636-.1669-.25963-.40799-.44509-.24109-.18545-.53782-.25963-.29673-.0927-.612-.0927-.31527 0-.612.0927-.29672.0742-.53781.25963-.24109.18546-.42655.44509-.16691.25964-.25963.55636-.0927.27818-.12982.59346-.0371.29672-.0371.61199v5.93453z"/><path d="m207.25984 168.72077q-.408 0-.816-.0556-.408-.0371-.79745-.16691-.38945-.14836-.74181-.37091-.35237-.22254-.612-.53781-.24109-.33382-.37091-.72327-.12982-.408-.12982-.816v-.0556h1.44654v.0186q0 .35236.18546.64909.204.29672.50072.48218.29673.16691.63055.22254.35236.0556.70472.0556.33382 0 .66764-.0556.35236-.0556.64908-.204.29673-.16691.50073-.44509.22255-.29672.22255-.63054 0-.33382-.18546-.612-.16691-.29673-.42654-.48218-.25964-.18545-.57491-.27818-.29673-.11127-.612-.18545-.31527-.0742-.63054-.14837-.29673-.0742-.612-.18545-.29673-.11127-.59345-.24109-.27818-.14837-.53782-.33382-.25964-.204-.48218-.44509-.204-.24109-.35236-.51927-.14837-.29673-.24109-.612-.0742-.31527-.0742-.63054 0-.408.11127-.77891.12982-.38945.37091-.70472.24109-.33382.5749-.55637.33382-.22254.70473-.35236.37091-.14836.76036-.18545.408-.0556.79745-.0556.408 0 .79745.0556.38946.0371.76037.18545.38945.12982.70472.37091.33382.22254.57491.53782.24109.31527.35236.70472.12982.38945.12982.77891v.0556h-1.44654v-.0185q0-.33382-.16691-.612-.16691-.29673-.44509-.46363-.27818-.18546-.612-.24109-.31527-.0556-.64909-.0556-.31527 0-.64909.0556-.31527.0556-.59345.22254-.27818.16691-.46364.44509-.18545.27818-.18545.612 0 .31527.16691.612.16691.27818.42654.48218.25964.18545.55637.29672.31527.0927.63054.16691.31527.0742.63054.14837.31527.0742.612.18545.31527.0927.59345.24109.29673.14836.53782.35236.25964.18546.48218.42655.22255.24109.37091.53781.14836.27818.22254.59346.0927.31527.0927.63054 0 .408-.12982.79745-.12981.38945-.38945.72327-.25964.31527-.612.53782-.33382.22254-.72327.35236-.38945.12982-.79745.16691-.408.0556-.816.0556z"/></g></g></g></svg>