<svg height="211.66667mm" viewBox="0 0 672.51764 211.66667" width="672.51764mm" xmlns="http://www.w3.org/2000/svg"><g><path d="m0 0h672.51764v211.66667h-672.51764z" fill="#1c1b19" fill-rule="evenodd"/><g fill="#fce8c3" stroke-width=".265155" transform="matrix(5.74914478416 0 0 5.72437620645 -266.70319 -384.663047)"><path d="m88.988329 85.619558q-.318185 0-.63637-.05091-.305458-.05091-.598188-.178184-.29273-.127274-.534551-.330912-.229093-.216366-.394549-.483641-.165456-.280003-.241821-.585461-.07636-.318185-.07636-.63637v-.05091h.992737v.03818q0 .29273.101819.572733.101819.267275.318185.458186.216366.190911.496369.280003.280003.07636.572733.07636.29273 0 .58546-.08909.29273-.08909.496369-.29273.216366-.216366.318185-.496369.101819-.29273.101819-.598188 0-.318185-.140001-.623642-.127274-.318185-.356368-.547279-.229093-.24182-.509096-.407276-.280002-.178184-.572733-.330913-.280002-.152729-.572733-.318185-.280002-.165456-.53455-.369094-.254548-.203639-.483642-.445459-.216365-.241821-.369094-.534551-.152729-.29273-.241821-.610915-.07636-.318185-.07636-.649098 0-.305457.06364-.610915.07636-.318185.216366-.598188.152728-.280003.369094-.509096.229093-.229093.509096-.369094.280003-.152729.585461-.203639.318185-.06364.63637-.06364.305457 0 .610915.05091.318185.05091.598188.190911.280002.127274.496368.34364.229093.216365.381822.496368.152729.267276.216366.572733.07636.305458.07636.610915v.05091h-.992744v-.03818q0-.267276-.08909-.534551-.08909-.280003-.280002-.470914-.190911-.203638-.470914-.29273-.267276-.08909-.547278-.08909-.280003 0-.560006.101819-.280003.10182-.470914.318185-.190911.203639-.280003.483642-.08909.280002-.08909.560005 0 .330913.127274.649098.140001.305457.356367.547278.229093.229093.509096.407277.280003.165456.572733.318185.29273.140001.572733.318185.280003.165456.534551.369094.267275.203639.483641.445459.216366.241821.369094.534551.165457.280003.241821.610915.08909.318185.08909.63637 0 .330913-.07637.649098-.07636.305457-.229093.598187-.152729.280003-.394549.509096-.241821.216366-.534551.356368-.280003.140001-.610915.190911-.318185.06364-.63637.06364z"/><path d="m92.99746 85.517738v-9.354639h2.443661q.343639 0 .674552.07636.343639.07636.63637.267275.29273.178184.509096.458187.216365.267275.343639.58546.140002.318185.178184.661825.05091.34364.05091.687279 0 .432732-.07636.865464-.07636.432731-.29273.801826-.216366.369094-.572733.63637-.34364.267275-.763644.381822l1.90911 3.932766h-1.081829l-.280003-.58546-1.590925-3.283669h-1.094556v3.869129zm2.443661-4.760047q.216365 0 .432731-.06364.216366-.06364.381822-.190911.178184-.140002.29273-.330913.114547-.190911.178184-.394549.06364-.216366.08909-.432732.02545-.216365.02545-.445459 0-.216365-.02545-.432731-.02545-.216366-.08909-.420004-.06364-.216366-.178184-.407277-.114546-.190911-.29273-.318185-.165456-.140002-.381822-.203639-.216366-.06364-.432731-.06364h-1.450924v3.703674z"/><path d="m101.69027 85.619558q-.33091 0-.67455-.06364-.33091-.06364-.62364-.229094-.29273-.165456-.521824-.420004-.229094-.254548-.369095-.560005-.140001-.305458-.190911-.63637-.05091-.34364-.05091-.674553v-4.390953q0-.330912.05091-.661824.05091-.34364.190911-.649098.140001-.305457.369095-.560005.229094-.254548.521824-.420005.29273-.165456.62364-.229093.34364-.06364.67455-.06364.31819 0 .62365.05091.31818.05091.59818.190911.29273.140001.52183.356367.24182.216366.38182.496369.15273.280002.22909.58546.0764.305458.0764.623643v.03818h-.99274v-.02545q0-.280003-.10182-.560006-.0891-.280002-.29273-.483641-.19091-.203638-.47091-.29273-.28001-.08909-.57274-.08909-.31818 0-.62364.127274-.29273.114547-.48364.369095-.19091.254548-.26728.572733-.0636.305457-.0636.623642v4.390953q0 .318185.0636.63637.0764.305458.26728.560006.19091.254548.48364.381822.30546.114547.62364.114547.29273 0 .57274-.08909.28-.08909.47091-.29273.20364-.203639.29273-.483642.10182-.280002.10182-.560005v-.02546h.99274v.03818q0 .318185-.0764.623643-.0764.305457-.22909.58546-.14.280003-.38182.496369-.2291.216366-.52183.356367-.28.140001-.59818.190911-.30546.05091-.62365.05091z"/><path d="m105.82668 85.517738v-9.354639h4.63277v.890918h-3.64004v3.156396h2.92731v.890918h-2.92731v3.525489h3.64004v.890918z"/><path d="m112.08856 85.517738v-9.354639h2.44366q.34364 0 .67455.07636.34364.07636.63637.267275.29273.178184.5091.458187.21636.267275.34364.58546.14.318185.17818.661825.0509.34364.0509.687279 0 .432732-.0764.865464-.0764.432731-.29273.801826-.21637.369094-.57274.63637-.34364.267275-.76364.381822l1.90911 3.932766h-1.08183l-.28-.58546-1.59093-3.283669h-1.09455v3.869129zm2.44366-4.760047q.21637 0 .43273-.06364.21637-.06364.38182-.190911.17819-.140002.29273-.330913.11455-.190911.17819-.394549.0636-.216366.0891-.432732.0255-.216365.0255-.445459 0-.216365-.0255-.432731-.0255-.216366-.0891-.420004-.0636-.216366-.17819-.407277-.11454-.190911-.29273-.318185-.16545-.140002-.38182-.203639-.21636-.06364-.43273-.06364h-1.45092v3.703674z"/><path d="m120.32319 85.517738v-3.7164l-2.11275-5.638239h1.05637l1.55275 4.238225 1.55274-4.238225h1.05637l-2.11274 5.638239v3.7164z"/></g><g fill-rule="evenodd" transform="matrix(4.81483365554 0 0 5.7367471 -169.63737743728 -384.663047)"><path d="m83.148411 87.071426h2.660133v8.03292h-2.660133z" fill="#ef2f27"/><path d="m86.892395 87.071426h2.660133v8.03292h-2.660133z" fill="#f75341"/><path d="m90.636368 87.071426h2.660133v8.03292h-2.660133z" fill="#519f50"/><path d="m94.380341 87.071426h2.660133v8.03292h-2.660133z" fill="#98bc37"/><path d="m98.124313 87.071426h2.660133v8.03292h-2.660133z" fill="#fbb829"/><path d="m101.86829 87.071426h2.660133v8.03292h-2.660133z" fill="#fed06e"/><path d="m105.61226 87.071426h2.660133v8.03292h-2.660133z" fill="#2c78bf"/><path d="m109.35623 87.071426h2.660133v8.03292h-2.660133z" fill="#68a8e4"/><path d="m113.1002 87.071426h2.660133v8.03292h-2.660133z" fill="#e02c6d"/><path d="m116.84418 87.071426h2.660133v8.03292h-2.660133z" fill="#ff5c8f"/><path d="m120.58814 87.071426h2.660133v8.03292h-2.660133z" fill="#0aaeb3"/><path d="m124.33212 87.071426h2.660133v8.03292h-2.660133z" fill="#53fde9"/></g></g></svg>